<svg id="visual" viewBox="0 0 1920 1080" width="1920" height="1080" xmlns="http://www.w3.org/2000/svg" xmlns:xlink="http://www.w3.org/1999/xlink" version="1.1"><rect x="0" y="0" width="1920" height="1080" fill="#ffffff"></rect><defs><linearGradient id="grad1_0" x1="43.8%" y1="100%" x2="100%" y2="0%"><stop offset="14.444444444444446%" stop-color="#a5ddf8" stop-opacity="1"></stop><stop offset="85.55555555555554%" stop-color="#a5ddf8" stop-opacity="1"></stop></linearGradient></defs><defs><linearGradient id="grad1_1" x1="43.8%" y1="100%" x2="100%" y2="0%"><stop offset="14.444444444444446%" stop-color="#a5ddf8" stop-opacity="1"></stop><stop offset="85.55555555555554%" stop-color="#b3e2f9" stop-opacity="1"></stop></linearGradient></defs><defs><linearGradient id="grad1_2" x1="43.8%" y1="100%" x2="100%" y2="0%"><stop offset="14.444444444444446%" stop-color="#c0e7fa" stop-opacity="1"></stop><stop offset="85.55555555555554%" stop-color="#b3e2f9" stop-opacity="1"></stop></linearGradient></defs><defs><linearGradient id="grad1_3" x1="43.8%" y1="100%" x2="100%" y2="0%"><stop offset="14.444444444444446%" stop-color="#c0e7fa" stop-opacity="1"></stop><stop offset="85.55555555555554%" stop-color="#ceecfb" stop-opacity="1"></stop></linearGradient></defs><defs><linearGradient id="grad1_4" x1="43.8%" y1="100%" x2="100%" y2="0%"><stop offset="14.444444444444446%" stop-color="#daf0fc" stop-opacity="1"></stop><stop offset="85.55555555555554%" stop-color="#ceecfb" stop-opacity="1"></stop></linearGradient></defs><defs><linearGradient id="grad1_5" x1="43.8%" y1="100%" x2="100%" y2="0%"><stop offset="14.444444444444446%" stop-color="#daf0fc" stop-opacity="1"></stop><stop offset="85.55555555555554%" stop-color="#e7f5fd" stop-opacity="1"></stop></linearGradient></defs><defs><linearGradient id="grad1_6" x1="43.8%" y1="100%" x2="100%" y2="0%"><stop offset="14.444444444444446%" stop-color="#f3fafe" stop-opacity="1"></stop><stop offset="85.55555555555554%" stop-color="#e7f5fd" stop-opacity="1"></stop></linearGradient></defs><defs><linearGradient id="grad1_7" x1="43.8%" y1="100%" x2="100%" y2="0%"><stop offset="14.444444444444446%" stop-color="#f3fafe" stop-opacity="1"></stop><stop offset="85.55555555555554%" stop-color="#ffffff" stop-opacity="1"></stop></linearGradient></defs><defs><linearGradient id="grad2_0" x1="0%" y1="100%" x2="56.3%" y2="0%"><stop offset="14.444444444444446%" stop-color="#a5ddf8" stop-opacity="1"></stop><stop offset="85.55555555555554%" stop-color="#a5ddf8" stop-opacity="1"></stop></linearGradient></defs><defs><linearGradient id="grad2_1" x1="0%" y1="100%" x2="56.3%" y2="0%"><stop offset="14.444444444444446%" stop-color="#b3e2f9" stop-opacity="1"></stop><stop offset="85.55555555555554%" stop-color="#a5ddf8" stop-opacity="1"></stop></linearGradient></defs><defs><linearGradient id="grad2_2" x1="0%" y1="100%" x2="56.3%" y2="0%"><stop offset="14.444444444444446%" stop-color="#b3e2f9" stop-opacity="1"></stop><stop offset="85.55555555555554%" stop-color="#c0e7fa" stop-opacity="1"></stop></linearGradient></defs><defs><linearGradient id="grad2_3" x1="0%" y1="100%" x2="56.3%" y2="0%"><stop offset="14.444444444444446%" stop-color="#ceecfb" stop-opacity="1"></stop><stop offset="85.55555555555554%" stop-color="#c0e7fa" stop-opacity="1"></stop></linearGradient></defs><defs><linearGradient id="grad2_4" x1="0%" y1="100%" x2="56.3%" y2="0%"><stop offset="14.444444444444446%" stop-color="#ceecfb" stop-opacity="1"></stop><stop offset="85.55555555555554%" stop-color="#daf0fc" stop-opacity="1"></stop></linearGradient></defs><defs><linearGradient id="grad2_5" x1="0%" y1="100%" x2="56.3%" y2="0%"><stop offset="14.444444444444446%" stop-color="#e7f5fd" stop-opacity="1"></stop><stop offset="85.55555555555554%" stop-color="#daf0fc" stop-opacity="1"></stop></linearGradient></defs><defs><linearGradient id="grad2_6" x1="0%" y1="100%" x2="56.3%" y2="0%"><stop offset="14.444444444444446%" stop-color="#e7f5fd" stop-opacity="1"></stop><stop offset="85.55555555555554%" stop-color="#f3fafe" stop-opacity="1"></stop></linearGradient></defs><defs><linearGradient id="grad2_7" x1="0%" y1="100%" x2="56.3%" y2="0%"><stop offset="14.444444444444446%" stop-color="#ffffff" stop-opacity="1"></stop><stop offset="85.55555555555554%" stop-color="#f3fafe" stop-opacity="1"></stop></linearGradient></defs><g transform="translate(1920, 1080)"><path d="M-864 0C-857 -117.8 -850.1 -235.6 -798.2 -330.6C-746.4 -425.7 -649.6 -498.1 -561.4 -561.4C-473.3 -624.8 -393.7 -679.1 -301.6 -728C-209.4 -776.9 -104.7 -820.5 0 -864L0 0Z" fill="#f9fdff"></path><path d="M-756 0C-749.9 -103.1 -743.8 -206.1 -698.5 -289.3C-653.1 -372.5 -568.4 -435.8 -491.3 -491.3C-414.1 -546.7 -344.5 -594.2 -263.9 -637C-183.2 -679.8 -91.6 -717.9 0 -756L0 0Z" fill="#edf8fe"></path><path d="M-648 0C-642.8 -88.3 -637.6 -176.7 -598.7 -248C-559.8 -319.3 -487.2 -373.6 -421.1 -421.1C-355 -468.6 -295.3 -509.3 -226.2 -546C-157.1 -582.7 -78.5 -615.4 0 -648L0 0Z" fill="#e0f3fd"></path><path d="M-540 0C-535.7 -73.6 -531.3 -147.2 -498.9 -206.6C-466.5 -266.1 -406 -311.3 -350.9 -350.9C-295.8 -390.5 -246.1 -424.4 -188.5 -455C-130.9 -485.6 -65.4 -512.8 0 -540L0 0Z" fill="#d4eefc"></path><path d="M-432 0C-428.5 -58.9 -425 -117.8 -399.1 -165.3C-373.2 -212.9 -324.8 -249 -280.7 -280.7C-236.6 -312.4 -196.8 -339.5 -150.8 -364C-104.7 -388.5 -52.4 -410.2 0 -432L0 0Z" fill="#c7e9fb"></path><path d="M-324 0C-321.4 -44.2 -318.8 -88.3 -299.3 -124C-279.9 -159.6 -243.6 -186.8 -210.5 -210.5C-177.5 -234.3 -147.6 -254.7 -113.1 -273C-78.5 -291.4 -39.3 -307.7 0 -324L0 0Z" fill="#bae4fa"></path><path d="M-216 0C-214.3 -29.4 -212.5 -58.9 -199.6 -82.7C-186.6 -106.4 -162.4 -124.5 -140.4 -140.4C-118.3 -156.2 -98.4 -169.8 -75.4 -182C-52.4 -194.2 -26.2 -205.1 0 -216L0 0Z" fill="#acdff9"></path><path d="M-108 0C-107.1 -14.7 -106.3 -29.4 -99.8 -41.3C-93.3 -53.2 -81.2 -62.3 -70.2 -70.2C-59.2 -78.1 -49.2 -84.9 -37.7 -91C-26.2 -97.1 -13.1 -102.6 0 -108L0 0Z" fill="#a5ddf8"></path></g><g transform="translate(0, 0)"><path d="M864 0C849.6 117.9 835.2 235.8 778.8 322.6C722.4 409.4 624.1 465.1 548 548C472 630.9 418.3 741 330.6 798.2C243 855.4 121.5 859.7 0 864L0 0Z" fill="#f9fdff"></path><path d="M756 0C743.4 103.2 730.8 206.3 681.5 282.3C632.1 358.2 546 407 479.5 479.5C413 552.1 366 648.4 289.3 698.5C212.6 748.5 106.3 752.3 0 756L0 0Z" fill="#edf8fe"></path><path d="M648 0C637.2 88.4 626.4 176.9 584.1 242C541.8 307.1 468 348.8 411 411C354 473.2 313.7 555.8 248 598.7C182.3 641.6 91.1 644.8 0 648L0 0Z" fill="#e0f3fd"></path><path d="M540 0C531 73.7 522 147.4 486.8 201.6C451.5 255.9 390 290.7 342.5 342.5C295 394.3 261.4 463.1 206.6 498.9C151.9 534.6 75.9 537.3 0 540L0 0Z" fill="#d4eefc"></path><path d="M432 0C424.8 59 417.6 117.9 389.4 161.3C361.2 204.7 312 232.6 274 274C236 315.5 209.1 370.5 165.3 399.1C121.5 427.7 60.8 429.9 0 432L0 0Z" fill="#c7e9fb"></path><path d="M324 0C318.6 44.2 313.2 88.4 292.1 121C270.9 153.5 234 174.4 205.5 205.5C177 236.6 156.8 277.9 124 299.3C91.1 320.8 45.6 322.4 0 324L0 0Z" fill="#bae4fa"></path><path d="M216 0C212.4 29.5 208.8 59 194.7 80.7C180.6 102.4 156 116.3 137 137C118 157.7 104.6 185.3 82.7 199.6C60.8 213.9 30.4 214.9 0 216L0 0Z" fill="#acdff9"></path><path d="M108 0C106.2 14.7 104.4 29.5 97.4 40.3C90.3 51.2 78 58.1 68.5 68.5C59 78.9 52.3 92.6 41.3 99.8C30.4 106.9 15.2 107.5 0 108L0 0Z" fill="#a5ddf8"></path></g></svg>